STARTFONT 2.1
FONT -Misc-Stlarch2-Medium-R-Normal--10-100-75-75-C-80-ISO10646-1
SIZE 10 75 75
FONTBOUNDINGBOX 8 10 0 -2
STARTPROPERTIES 23
FONTNAME_REGISTRY ""
FOUNDRY "Misc"
FAMILY_NAME "Stlarch2"
WEIGHT_NAME "Medium"
SLANT "R"
SETWIDTH_NAME "Normal"
ADD_STYLE_NAME ""
PIXEL_SIZE 10
POINT_SIZE 100
RESOLUTION_X 75
RESOLUTION_Y 75
SPACING "C"
AVERAGE_WIDTH 80
CHARSET_REGISTRY "ISO10646"
CHARSET_ENCODING "1"
COPYRIGHT "GPLv2"
WEIGHT 10
_GBDFED_INFO "Edited with gbdfed 1.6."
X_HEIGHT 3
QUAD_WIDTH 8
DEFAULT_CHAR 0
FONT_DESCENT 2
FONT_ASCENT 8
ENDPROPERTIES
CHARS 417
STARTCHAR U+E000
ENCODING 57344
SWIDTH 768 0
DWIDTH 8 0
BBX 8 10 0 -2
BITMAP
FF
FF
FF
FF
FF
FF
FF
FF
00
00
ENDCHAR
STARTCHAR U+E001
ENCODING 57345
SWIDTH 768 0
DWIDTH 8 0
BBX 8 10 0 -2
BITMAP
FF
FF
C3
C3
C3
C3
FF
FF
00
00
ENDCHAR
STARTCHAR U+E002
ENCODING 57346
SWIDTH 768 0
DWIDTH 8 0
BBX 8 10 0 -2
BITMAP
F7
F7
F0
F7
F7
F0
F7
F7
00
00
ENDCHAR
STARTCHAR U+E003
ENCODING 57347
SWIDTH 768 0
DWIDTH 8 0
BBX 8 10 0 -2
BITMAP
FF
FF
FF
FF
00
DB
DB
DB
00
00
ENDCHAR
STARTCHAR U+E004
ENCODING 57348
SWIDTH 768 0
DWIDTH 8 0
BBX 8 10 0 -2
BITMAP
FF
FF
FF
FF
00
FF
00
FF
00
00
ENDCHAR
STARTCHAR U+E005
ENCODING 57349
SWIDTH 768 0
DWIDTH 8 0
BBX 8 10 0 -2
BITMAP
DB
DB
00
DB
DB
00
DB
DB
00
00
ENDCHAR
STARTCHAR U+E006
ENCODING 57350
SWIDTH 768 0
DWIDTH 8 0
BBX 8 10 0 -2
BITMAP
F7
F7
F7
F7
07
FF
FF
FF
00
00
ENDCHAR
STARTCHAR U+E007
ENCODING 57351
SWIDTH 768 0
DWIDTH 8 0
BBX 8 10 0 -2
BITMAP
F7
F7
F7
F7
F0
F5
F4
F5
00
00
ENDCHAR
STARTCHAR U+E008
ENCODING 57352
SWIDTH 768 0
DWIDTH 8 0
BBX 8 10 0 -2
BITMAP
F7
F7
F7
F7
F0
F5
F1
F5
00
00
ENDCHAR
STARTCHAR U+E009
ENCODING 57353
SWIDTH 768 0
DWIDTH 8 0
BBX 8 10 0 -2
BITMAP
F7
F7
F0
F7
07
F0
F7
F7
00
00
ENDCHAR
STARTCHAR U+E00A
ENCODING 57354
SWIDTH 768 0
DWIDTH 8 0
BBX 8 10 0 -2
BITMAP
F7
F7
F7
F7
00
DB
DB
DB
00
00
ENDCHAR
STARTCHAR U+E00B
ENCODING 57355
SWIDTH 768 0
DWIDTH 8 0
BBX 8 10 0 -2
BITMAP
0C
0A
49
2A
1C
2A
49
0A
0C
00
ENDCHAR
STARTCHAR U+E00C
ENCODING 57356
SWIDTH 768 0
DWIDTH 8 0
BBX 8 10 0 -2
BITMAP
04
05
15
15
16
0C
04
04
00
00
ENDCHAR
STARTCHAR U+E00D
ENCODING 57357
SWIDTH 768 0
DWIDTH 8 0
BBX 8 10 0 -2
BITMAP
18
18
5A
99
99
81
42
3C
00
00
ENDCHAR
STARTCHAR U+E00E
ENCODING 57358
SWIDTH 768 0
DWIDTH 8 0
BBX 8 10 0 -2
BITMAP
18
18
3C
3C
7E
66
E7
C3
81
00
ENDCHAR
STARTCHAR U+E00F
ENCODING 57359
SWIDTH 768 0
DWIDTH 8 0
BBX 8 10 0 -2
BITMAP
3C
6E
FC
F8
F0
FF
7E
3C
00
00
ENDCHAR
STARTCHAR U+E010
ENCODING 57360
SWIDTH 768 0
DWIDTH 8 0
BBX 8 10 0 -2
BITMAP
FF
FF
FF
E7
E7
FF
FF
FF
00
00
ENDCHAR
STARTCHAR U+E011
ENCODING 57361
SWIDTH 768 0
DWIDTH 8 0
BBX 8 10 0 -2
BITMAP
FF
F9
F9
FF
FF
9F
9F
FF
00
00
ENDCHAR
STARTCHAR U+E012
ENCODING 57362
SWIDTH 768 0
DWIDTH 8 0
BBX 8 10 0 -2
BITMAP
FF
F9
F9
E7
E7
9F
9F
FF
00
00
ENDCHAR
STARTCHAR U+E013
ENCODING 57363
SWIDTH 768 0
DWIDTH 8 0
BBX 8 10 0 -2
BITMAP
FF
99
99
FF
FF
99
99
FF
00
00
ENDCHAR
STARTCHAR U+E014
ENCODING 57364
SWIDTH 768 0
DWIDTH 8 0
BBX 8 10 0 -2
BITMAP
FF
99
99
E7
E7
99
99
FF
00
00
ENDCHAR
STARTCHAR U+E015
ENCODING 57365
SWIDTH 768 0
DWIDTH 8 0
BBX 8 10 0 -2
BITMAP
3C
6E
EF
EF
E1
FF
7E
3C
00
00
ENDCHAR
STARTCHAR U+E016
ENCODING 57366
SWIDTH 768 0
DWIDTH 8 0
BBX 8 10 0 -2
BITMAP
3C
42
91
91
9D
81
42
3C
00
00
ENDCHAR
STARTCHAR U+E017
ENCODING 57367
SWIDTH 768 0
DWIDTH 8 0
BBX 8 10 0 -2
BITMAP
FF
EF
EF
EF
E1
FF
FF
FF
00
00
ENDCHAR
STARTCHAR U+E018
ENCODING 57368
SWIDTH 768 0
DWIDTH 8 0
BBX 8 10 0 -2
BITMAP
FF
81
91
91
9D
81
81
FF
00
00
ENDCHAR
STARTCHAR U+E019
ENCODING 57369
SWIDTH 768 0
DWIDTH 8 0
BBX 8 10 0 -2
BITMAP
18
2C
6E
EF
E1
7E
3C
18
00
00
ENDCHAR
STARTCHAR U+E01A
ENCODING 57370
SWIDTH 768 0
DWIDTH 8 0
BBX 8 10 0 -2
BITMAP
18
24
52
91
9D
42
24
18
00
00
ENDCHAR
STARTCHAR U+E01B
ENCODING 57371
SWIDTH 768 0
DWIDTH 8 0
BBX 8 10 0 -2
BITMAP
13
07
4E
14
68
90
90
60
00
00
ENDCHAR
STARTCHAR U+E01C
ENCODING 57372
SWIDTH 768 0
DWIDTH 8 0
BBX 8 10 0 -2
BITMAP
09
1C
1D
1C
15
22
22
1C
00
00
ENDCHAR
STARTCHAR U+E01D
ENCODING 57373
SWIDTH 768 0
DWIDTH 8 0
BBX 8 10 0 -2
BITMAP
0C
0F
0C
0F
0C
1E
1E
0C
00
00
ENDCHAR
STARTCHAR U+E01E
ENCODING 57374
SWIDTH 768 0
DWIDTH 8 0
BBX 8 10 0 -2
BITMAP
3E
7F
41
49
45
49
41
3E
00
00
ENDCHAR
STARTCHAR U+E01F
ENCODING 57375
SWIDTH 768 0
DWIDTH 8 0
BBX 8 10 0 -2
BITMAP
3E
7F
41
5D
41
5D
41
3E
00
00
ENDCHAR
STARTCHAR U+E020
ENCODING 57376
SWIDTH 768 0
DWIDTH 8 0
BBX 8 10 0 -2
BITMAP
55
00
7F
7F
7F
7F
00
55
00
00
ENDCHAR
STARTCHAR U+E021
ENCODING 57377
SWIDTH 768 0
DWIDTH 8 0
BBX 8 10 0 -2
BITMAP
DB
00
FF
FF
FF
FF
00
DB
00
00
ENDCHAR
STARTCHAR U+E022
ENCODING 57378
SWIDTH 768 0
DWIDTH 8 0
BBX 8 10 0 -2
BITMAP
C3
BD
7E
7E
7E
7E
BD
C3
00
00
ENDCHAR
STARTCHAR U+E023
ENCODING 57379
SWIDTH 768 0
DWIDTH 8 0
BBX 8 10 0 -2
BITMAP
00
63
5D
3E
3E
3E
5D
63
00
00
ENDCHAR
STARTCHAR U+E024
ENCODING 57380
SWIDTH 768 0
DWIDTH 8 0
BBX 8 10 0 -2
BITMAP
81
7E
7E
7E
7E
7E
7E
81
00
00
ENDCHAR
STARTCHAR U+E025
ENCODING 57381
SWIDTH 768 0
DWIDTH 8 0
BBX 8 10 0 -2
BITMAP
00
41
3E
3E
3E
3E
3E
41
00
00
ENDCHAR
STARTCHAR U+E026
ENCODING 57382
SWIDTH 768 0
DWIDTH 8 0
BBX 8 10 0 -2
BITMAP
DB
C3
3C
BD
BD
3C
C3
DB
00
00
ENDCHAR
STARTCHAR U+E027
ENCODING 57383
SWIDTH 768 0
DWIDTH 8 0
BBX 8 10 0 -2
BITMAP
40
5F
7C
66
66
3E
FA
02
00
00
ENDCHAR
STARTCHAR U+E028
ENCODING 57384
SWIDTH 768 0
DWIDTH 8 0
BBX 8 10 0 -2
BITMAP
00
55
00
7F
7F
7F
00
55
00
00
ENDCHAR
STARTCHAR U+E029
ENCODING 57385
SWIDTH 768 0
DWIDTH 8 0
BBX 8 10 0 -2
BITMAP
3E
41
41
41
7F
7F
7F
7F
00
00
ENDCHAR
STARTCHAR U+E02A
ENCODING 57386
SWIDTH 768 0
DWIDTH 8 0
BBX 8 10 0 -2
BITMAP
00
7F
5D
41
7F
5D
41
7F
00
00
ENDCHAR
STARTCHAR U+E02B
ENCODING 57387
SWIDTH 768 0
DWIDTH 8 0
BBX 8 10 0 -2
BITMAP
FF
BD
81
FF
BD
81
81
FF
00
00
ENDCHAR
STARTCHAR U+E02C
ENCODING 57388
SWIDTH 768 0
DWIDTH 8 0
BBX 8 10 0 -2
BITMAP
3E
63
5D
5D
5D
63
3E
41
00
00
ENDCHAR
STARTCHAR U+E02D
ENCODING 57389
SWIDTH 768 0
DWIDTH 8 0
BBX 8 10 0 -2
BITMAP
F8
84
F2
89
E5
95
D5
FF
00
00
ENDCHAR
STARTCHAR U+E02E
ENCODING 57390
SWIDTH 768 0
DWIDTH 8 0
BBX 8 10 0 -2
BITMAP
0E
0E
00
1E
0E
0E
0E
1F
00
00
ENDCHAR
STARTCHAR U+E02F
ENCODING 57391
SWIDTH 768 0
DWIDTH 8 0
BBX 8 10 0 -2
BITMAP
1E
1E
00
3E
1E
1E
1E
3F
00
00
ENDCHAR
STARTCHAR U+E030
ENCODING 57392
SWIDTH 768 0
DWIDTH 8 0
BBX 8 10 0 -2
BITMAP
0C
3F
21
21
21
21
21
3F
00
00
ENDCHAR
STARTCHAR U+E031
ENCODING 57393
SWIDTH 768 0
DWIDTH 8 0
BBX 8 10 0 -2
BITMAP
0C
3F
21
21
29
2D
21
3F
00
00
ENDCHAR
STARTCHAR U+E032
ENCODING 57394
SWIDTH 768 0
DWIDTH 8 0
BBX 8 10 0 -2
BITMAP
0C
3F
21
29
2D
2D
21
3F
00
00
ENDCHAR
STARTCHAR U+E033
ENCODING 57395
SWIDTH 768 0
DWIDTH 8 0
BBX 8 10 0 -2
BITMAP
0C
3F
21
2D
2D
2D
21
3F
00
00
ENDCHAR
STARTCHAR U+E034
ENCODING 57396
SWIDTH 768 0
DWIDTH 8 0
BBX 8 10 0 -2
BITMAP
1C
7F
41
41
41
41
41
7F
00
00
ENDCHAR
STARTCHAR U+E035
ENCODING 57397
SWIDTH 768 0
DWIDTH 8 0
BBX 8 10 0 -2
BITMAP
1C
7F
41
41
51
59
41
7F
00
00
ENDCHAR
STARTCHAR U+E036
ENCODING 57398
SWIDTH 768 0
DWIDTH 8 0
BBX 8 10 0 -2
BITMAP
1C
7F
41
51
59
5D
41
7F
00
00
ENDCHAR
STARTCHAR U+E037
ENCODING 57399
SWIDTH 768 0
DWIDTH 8 0
BBX 8 10 0 -2
BITMAP
1C
7F
41
5D
5D
5D
41
7F
00
00
ENDCHAR
STARTCHAR U+E038
ENCODING 57400
SWIDTH 768 0
DWIDTH 8 0
BBX 8 10 0 -2
BITMAP
00
FE
82
83
83
82
FE
00
00
00
ENDCHAR
STARTCHAR U+E039
ENCODING 57401
SWIDTH 768 0
DWIDTH 8 0
BBX 8 10 0 -2
BITMAP
00
FE
82
A3
B3
82
FE
00
00
00
ENDCHAR
STARTCHAR U+E03A
ENCODING 57402
SWIDTH 768 0
DWIDTH 8 0
BBX 8 10 0 -2
BITMAP
00
FE
82
B3
BB
82
FE
00
00
00
ENDCHAR
STARTCHAR U+E03B
ENCODING 57403
SWIDTH 768 0
DWIDTH 8 0
BBX 8 10 0 -2
BITMAP
00
FE
82
BB
BB
82
FE
00
00
00
ENDCHAR
STARTCHAR U+E03C
ENCODING 57404
SWIDTH 768 0
DWIDTH 8 0
BBX 8 10 0 -2
BITMAP
00
FE
82
83
83
83
82
FE
00
00
ENDCHAR
STARTCHAR U+E03D
ENCODING 57405
SWIDTH 768 0
DWIDTH 8 0
BBX 8 10 0 -2
BITMAP
00
FE
82
83
A3
B3
82
FE
00
00
ENDCHAR
STARTCHAR U+E03E
ENCODING 57406
SWIDTH 768 0
DWIDTH 8 0
BBX 8 10 0 -2
BITMAP
00
FE
82
A3
B3
BB
82
FE
00
00
ENDCHAR
STARTCHAR U+E03F
ENCODING 57407
SWIDTH 768 0
DWIDTH 8 0
BBX 8 10 0 -2
BITMAP
00
FE
82
BB
BB
BB
82
FE
00
00
ENDCHAR
STARTCHAR U+E040
ENCODING 57408
SWIDTH 768 0
DWIDTH 8 0
BBX 8 10 0 -2
BITMAP
02
04
0C
18
1F
3E
06
0C
08
10
ENDCHAR
STARTCHAR U+E041
ENCODING 57409
SWIDTH 768 0
DWIDTH 8 0
BBX 8 10 0 -2
BITMAP
12
12
3F
3F
3F
1E
0C
0C
00
00
ENDCHAR
STARTCHAR U+E042
ENCODING 57410
SWIDTH 768 0
DWIDTH 8 0
BBX 8 10 0 -2
BITMAP
00
1C
3F
FC
FC
3F
1C
00
00
00
ENDCHAR
STARTCHAR U+E043
ENCODING 57411
SWIDTH 768 0
DWIDTH 8 0
BBX 8 10 0 -2
BITMAP
38
48
8F
88
88
8F
48
38
00
00
ENDCHAR
STARTCHAR U+E044
ENCODING 57412
SWIDTH 768 0
DWIDTH 8 0
BBX 8 10 0 -2
BITMAP
00
00
01
0D
0D
01
00
00
00
00
ENDCHAR
STARTCHAR U+E045
ENCODING 57413
SWIDTH 768 0
DWIDTH 8 0
BBX 8 10 0 -2
BITMAP
00
01
05
35
35
05
01
00
00
00
ENDCHAR
STARTCHAR U+E046
ENCODING 57414
SWIDTH 768 0
DWIDTH 8 0
BBX 8 10 0 -2
BITMAP
01
05
15
D5
D5
15
05
01
00
00
ENDCHAR
STARTCHAR U+E047
ENCODING 57415
SWIDTH 768 0
DWIDTH 8 0
BBX 8 10 0 -2
BITMAP
00
00
03
03
1B
1B
1B
1B
00
00
ENDCHAR
STARTCHAR U+E048
ENCODING 57416
SWIDTH 768 0
DWIDTH 8 0
BBX 8 10 0 -2
BITMAP
03
03
1B
1B
DB
DB
DB
DB
00
00
ENDCHAR
STARTCHAR U+E049
ENCODING 57417
SWIDTH 768 0
DWIDTH 8 0
BBX 8 10 0 -2
BITMAP
00
00
00
00
0F
00
06
06
00
00
ENDCHAR
STARTCHAR U+E04A
ENCODING 57418
SWIDTH 768 0
DWIDTH 8 0
BBX 8 10 0 -2
BITMAP
00
00
3F
00
1E
00
0C
0C
00
00
ENDCHAR
STARTCHAR U+E04B
ENCODING 57419
SWIDTH 768 0
DWIDTH 8 0
BBX 8 10 0 -2
BITMAP
FF
00
7E
00
3C
00
18
18
00
00
ENDCHAR
STARTCHAR U+E04C
ENCODING 57420
SWIDTH 768 0
DWIDTH 8 0
BBX 8 10 0 -2
BITMAP
0C
0C
2D
2D
21
1E
0C
3F
00
00
ENDCHAR
STARTCHAR U+E04D
ENCODING 57421
SWIDTH 768 0
DWIDTH 8 0
BBX 8 10 0 -2
BITMAP
3C
42
81
81
81
E7
E7
66
00
00
ENDCHAR
STARTCHAR U+E04E
ENCODING 57422
SWIDTH 768 0
DWIDTH 8 0
BBX 8 10 0 -2
BITMAP
00
01
03
1F
1F
1F
1F
03
01
00
ENDCHAR
STARTCHAR U+E04F
ENCODING 57423
SWIDTH 768 0
DWIDTH 8 0
BBX 8 10 0 -2
BITMAP
00
04
0C
7D
7A
74
68
14
24
00
ENDCHAR
STARTCHAR U+E050
ENCODING 57424
SWIDTH 768 0
DWIDTH 8 0
BBX 8 10 0 -2
BITMAP
00
04
0C
7D
7D
7D
7D
0C
04
00
ENDCHAR
STARTCHAR U+E051
ENCODING 57425
SWIDTH 768 0
DWIDTH 8 0
BBX 8 10 0 -2
BITMAP
00
00
01
03
1F
1F
1F
03
01
00
ENDCHAR
STARTCHAR U+E052
ENCODING 57426
SWIDTH 768 0
DWIDTH 8 0
BBX 8 10 0 -2
BITMAP
00
04
0C
7D
7A
74
08
14
00
00
ENDCHAR
STARTCHAR U+E053
ENCODING 57427
SWIDTH 768 0
DWIDTH 8 0
BBX 8 10 0 -2
BITMAP
00
04
0C
7D
7D
7D
0C
04
00
00
ENDCHAR
STARTCHAR U+E054
ENCODING 57428
SWIDTH 768 0
DWIDTH 8 0
BBX 8 10 0 -2
BITMAP
21
23
27
2F
2F
27
23
21
00
00
ENDCHAR
STARTCHAR U+E055
ENCODING 57429
SWIDTH 768 0
DWIDTH 8 0
BBX 8 10 0 -2
BITMAP
11
33
77
FF
FF
77
33
11
00
00
ENDCHAR
STARTCHAR U+E056
ENCODING 57430
SWIDTH 768 0
DWIDTH 8 0
BBX 8 10 0 -2
BITMAP
3C
7E
FF
FF
FF
FF
7E
3C
00
00
ENDCHAR
STARTCHAR U+E057
ENCODING 57431
SWIDTH 768 0
DWIDTH 8 0
BBX 8 10 0 -2
BITMAP
FF
FF
FF
FF
FF
FF
FF
FF
00
00
ENDCHAR
STARTCHAR U+E058
ENCODING 57432
SWIDTH 768 0
DWIDTH 8 0
BBX 8 10 0 -2
BITMAP
08
0C
0E
0F
0F
0E
0C
08
00
00
ENDCHAR
STARTCHAR U+E059
ENCODING 57433
SWIDTH 768 0
DWIDTH 8 0
BBX 8 10 0 -2
BITMAP
1B
1B
1B
1B
1B
1B
1B
1B
00
00
ENDCHAR
STARTCHAR U+E05A
ENCODING 57434
SWIDTH 768 0
DWIDTH 8 0
BBX 8 10 0 -2
BITMAP
21
31
39
3D
3D
39
31
21
00
00
ENDCHAR
STARTCHAR U+E05B
ENCODING 57435
SWIDTH 768 0
DWIDTH 8 0
BBX 8 10 0 -2
BITMAP
88
CC
EE
FF
FF
EE
CC
88
00
00
ENDCHAR
STARTCHAR U+E05C
ENCODING 57436
SWIDTH 768 0
DWIDTH 8 0
BBX 8 10 0 -2
BITMAP
3F
3F
21
21
21
63
E7
C6
00
00
ENDCHAR
STARTCHAR U+E05D
ENCODING 57437
SWIDTH 768 0
DWIDTH 8 0
BBX 8 10 0 -2
BITMAP
00
10
32
F1
F5
F5
F1
32
10
00
ENDCHAR
STARTCHAR U+E05E
ENCODING 57438
SWIDTH 768 0
DWIDTH 8 0
BBX 8 10 0 -2
BITMAP
00
44
7E
7F
7F
3E
04
00
00
00
ENDCHAR
STARTCHAR U+E05F
ENCODING 57439
SWIDTH 768 0
DWIDTH 8 0
BBX 8 10 0 -2
BITMAP
00
11
3F
7F
7F
3E
10
00
00
00
ENDCHAR
STARTCHAR U+E060
ENCODING 57440
SWIDTH 768 0
DWIDTH 8 0
BBX 8 10 0 -2
BITMAP
18
3C
7E
FF
3C
3C
3C
3C
00
00
ENDCHAR
STARTCHAR U+E061
ENCODING 57441
SWIDTH 768 0
DWIDTH 8 0
BBX 8 10 0 -2
BITMAP
3C
3C
3C
3C
FF
7E
3C
18
00
00
ENDCHAR
STARTCHAR U+E062
ENCODING 57442
SWIDTH 768 0
DWIDTH 8 0
BBX 8 10 0 -2
BITMAP
08
0C
FE
FF
FF
FE
0C
08
00
00
ENDCHAR
STARTCHAR U+E063
ENCODING 57443
SWIDTH 768 0
DWIDTH 8 0
BBX 8 10 0 -2
BITMAP
10
30
7F
FF
FF
7F
30
10
00
00
ENDCHAR
STARTCHAR U+E064
ENCODING 57444
SWIDTH 768 0
DWIDTH 8 0
BBX 8 10 0 -2
BITMAP
18
3C
7E
FF
3C
3C
3C
1E
00
00
ENDCHAR
STARTCHAR U+E065
ENCODING 57445
SWIDTH 768 0
DWIDTH 8 0
BBX 8 10 0 -2
BITMAP
1E
3C
3C
3C
FF
7E
3C
18
00
00
ENDCHAR
STARTCHAR U+E066
ENCODING 57446
SWIDTH 768 0
DWIDTH 8 0
BBX 8 10 0 -2
BITMAP
18
3C
7E
FF
3C
3C
3C
78
00
00
ENDCHAR
STARTCHAR U+E067
ENCODING 57447
SWIDTH 768 0
DWIDTH 8 0
BBX 8 10 0 -2
BITMAP
78
3C
3C
3C
FF
7E
3C
18
00
00
ENDCHAR
STARTCHAR U+E068
ENCODING 57448
SWIDTH 768 0
DWIDTH 8 0
BBX 8 10 0 -2
BITMAP
08
0C
7E
FF
FF
FE
8C
08
00
00
ENDCHAR
STARTCHAR U+E069
ENCODING 57449
SWIDTH 768 0
DWIDTH 8 0
BBX 8 10 0 -2
BITMAP
10
30
7E
FF
FF
7F
31
10
00
00
ENDCHAR
STARTCHAR U+E06A
ENCODING 57450
SWIDTH 768 0
DWIDTH 8 0
BBX 8 10 0 -2
BITMAP
08
8C
FE
FF
FF
7E
0C
08
00
00
ENDCHAR
STARTCHAR U+E06B
ENCODING 57451
SWIDTH 768 0
DWIDTH 8 0
BBX 8 10 0 -2
BITMAP
10
31
7F
FF
FF
7E
30
10
00
00
ENDCHAR
STARTCHAR U+E06C
ENCODING 57452
SWIDTH 768 0
DWIDTH 8 0
BBX 8 10 0 -2
BITMAP
00
0C
1E
3F
1E
1E
1E
1E
00
00
ENDCHAR
STARTCHAR U+E06D
ENCODING 57453
SWIDTH 768 0
DWIDTH 8 0
BBX 8 10 0 -2
BITMAP
00
1E
1E
1E
1E
3F
1E
0C
00
00
ENDCHAR
STARTCHAR U+E06E
ENCODING 57454
SWIDTH 768 0
DWIDTH 8 0
BBX 8 10 0 -2
BITMAP
00
04
7E
7F
7F
7E
04
00
00
00
ENDCHAR
STARTCHAR U+E06F
ENCODING 57455
SWIDTH 768 0
DWIDTH 8 0
BBX 8 10 0 -2
BITMAP
00
10
3F
7F
7F
3F
10
00
00
00
ENDCHAR
STARTCHAR U+E070
ENCODING 57456
SWIDTH 768 0
DWIDTH 8 0
BBX 8 10 0 -2
BITMAP
FF
7E
BD
DB
E7
FF
FF
FF
00
00
ENDCHAR
STARTCHAR U+E071
ENCODING 57457
SWIDTH 768 0
DWIDTH 8 0
BBX 8 10 0 -2
BITMAP
FF
81
C3
A5
99
81
81
FF
00
00
ENDCHAR
STARTCHAR U+E072
ENCODING 57458
SWIDTH 768 0
DWIDTH 8 0
BBX 8 10 0 -2
BITMAP
00
FF
7E
BD
DB
E7
FF
FF
00
00
ENDCHAR
STARTCHAR U+E073
ENCODING 57459
SWIDTH 768 0
DWIDTH 8 0
BBX 8 10 0 -2
BITMAP
00
FF
81
C3
A5
99
81
FF
00
00
ENDCHAR
STARTCHAR U+E074
ENCODING 57460
SWIDTH 768 0
DWIDTH 8 0
BBX 8 10 0 -2
BITMAP
C0
EC
DE
5E
EC
DE
3F
3F
00
00
ENDCHAR
STARTCHAR U+E075
ENCODING 57461
SWIDTH 768 0
DWIDTH 8 0
BBX 8 10 0 -2
BITMAP
00
0C
1E
1E
0C
1E
3F
3F
00
00
ENDCHAR
STARTCHAR U+E076
ENCODING 57462
SWIDTH 768 0
DWIDTH 8 0
BBX 8 10 0 -2
BITMAP
FF
BD
DB
E7
E7
DB
BD
FF
00
00
ENDCHAR
STARTCHAR U+E077
ENCODING 57463
SWIDTH 768 0
DWIDTH 8 0
BBX 8 10 0 -2
BITMAP
1E
33
33
33
33
3F
33
1E
00
00
ENDCHAR
STARTCHAR U+E078
ENCODING 57464
SWIDTH 768 0
DWIDTH 8 0
BBX 8 10 0 -2
BITMAP
1E
33
3F
33
33
33
33
1E
00
00
ENDCHAR
STARTCHAR U+E079
ENCODING 57465
SWIDTH 768 0
DWIDTH 8 0
BBX 8 10 0 -2
BITMAP
3C
7E
FF
C3
C3
FF
7E
3C
00
00
ENDCHAR
STARTCHAR U+E07A
ENCODING 57466
SWIDTH 768 0
DWIDTH 8 0
BBX 8 10 0 -2
BITMAP
00
0C
1E
3F
1E
1E
1E
0F
00
00
ENDCHAR
STARTCHAR U+E07B
ENCODING 57467
SWIDTH 768 0
DWIDTH 8 0
BBX 8 10 0 -2
BITMAP
00
0F
1E
1E
1E
3F
1E
0C
00
00
ENDCHAR
STARTCHAR U+E07C
ENCODING 57468
SWIDTH 768 0
DWIDTH 8 0
BBX 8 10 0 -2
BITMAP
00
0C
1E
3F
1E
1E
1E
3C
00
00
ENDCHAR
STARTCHAR U+E07D
ENCODING 57469
SWIDTH 768 0
DWIDTH 8 0
BBX 8 10 0 -2
BITMAP
00
3C
1E
1E
1E
3F
1E
0C
00
00
ENDCHAR
STARTCHAR U+E07E
ENCODING 57470
SWIDTH 768 0
DWIDTH 8 0
BBX 8 10 0 -2
BITMAP
00
04
3E
7F
7F
7E
44
00
00
00
ENDCHAR
STARTCHAR U+E07F
ENCODING 57471
SWIDTH 768 0
DWIDTH 8 0
BBX 8 10 0 -2
BITMAP
00
10
3E
7F
7F
3F
11
00
00
00
ENDCHAR
STARTCHAR U+E080
ENCODING 57472
SWIDTH 768 0
DWIDTH 8 0
BBX 8 10 0 -2
BITMAP
00
08
14
36
71
3E
1C
08
00
00
ENDCHAR
STARTCHAR U+E081
ENCODING 57473
SWIDTH 768 0
DWIDTH 8 0
BBX 8 10 0 -2
BITMAP
00
00
7F
77
77
71
7F
7F
7F
00
ENDCHAR
STARTCHAR U+E082
ENCODING 57474
SWIDTH 768 0
DWIDTH 8 0
BBX 8 10 0 -2
BITMAP
00
6B
63
1C
5D
1C
63
6B
00
00
ENDCHAR
STARTCHAR U+E083
ENCODING 57475
SWIDTH 768 0
DWIDTH 8 0
BBX 8 10 0 -2
BITMAP
00
20
2F
3C
36
1E
7A
02
00
00
ENDCHAR
STARTCHAR U+E084
ENCODING 57476
SWIDTH 768 0
DWIDTH 8 0
BBX 8 10 0 -2
BITMAP
00
00
FE
83
83
83
FE
00
00
00
ENDCHAR
STARTCHAR U+E085
ENCODING 57477
SWIDTH 768 0
DWIDTH 8 0
BBX 8 10 0 -2
BITMAP
00
00
FE
83
B3
83
FE
00
00
00
ENDCHAR
STARTCHAR U+E086
ENCODING 57478
SWIDTH 768 0
DWIDTH 8 0
BBX 8 10 0 -2
BITMAP
00
00
FE
83
BB
83
FE
00
00
00
ENDCHAR
STARTCHAR U+E087
ENCODING 57479
SWIDTH 768 0
DWIDTH 8 0
BBX 8 10 0 -2
BITMAP
00
0C
3F
21
21
21
21
3F
00
00
ENDCHAR
STARTCHAR U+E088
ENCODING 57480
SWIDTH 768 0
DWIDTH 8 0
BBX 8 10 0 -2
BITMAP
00
0C
3F
21
29
2D
21
3F
00
00
ENDCHAR
STARTCHAR U+E089
ENCODING 57481
SWIDTH 768 0
DWIDTH 8 0
BBX 8 10 0 -2
BITMAP
00
0C
3F
21
2D
2D
21
3F
00
00
ENDCHAR
STARTCHAR U+E08A
ENCODING 57482
SWIDTH 768 0
DWIDTH 8 0
BBX 8 10 0 -2
BITMAP
00
0E
1F
11
11
11
11
1F
00
00
ENDCHAR
STARTCHAR U+E08B
ENCODING 57483
SWIDTH 768 0
DWIDTH 8 0
BBX 8 10 0 -2
BITMAP
00
0E
1F
11
11
15
11
1F
00
00
ENDCHAR
STARTCHAR U+E08C
ENCODING 57484
SWIDTH 768 0
DWIDTH 8 0
BBX 8 10 0 -2
BITMAP
00
0E
1F
11
15
15
11
1F
00
00
ENDCHAR
STARTCHAR U+E08D
ENCODING 57485
SWIDTH 768 0
DWIDTH 8 0
BBX 8 10 0 -2
BITMAP
0E
1F
11
11
11
11
11
1F
00
00
ENDCHAR
STARTCHAR U+E08E
ENCODING 57486
SWIDTH 768 0
DWIDTH 8 0
BBX 8 10 0 -2
BITMAP
0E
1F
11
11
15
15
11
1F
00
00
ENDCHAR
STARTCHAR U+E08F
ENCODING 57487
SWIDTH 768 0
DWIDTH 8 0
BBX 8 10 0 -2
BITMAP
0E
1F
11
15
15
15
11
1F
00
00
ENDCHAR
STARTCHAR U+E090
ENCODING 57488
SWIDTH 768 0
DWIDTH 8 0
BBX 8 10 0 -2
BITMAP
00
7F
41
C1
C1
41
7F
00
00
00
ENDCHAR
STARTCHAR U+E091
ENCODING 57489
SWIDTH 768 0
DWIDTH 8 0
BBX 8 10 0 -2
BITMAP
00
7F
41
C5
CD
41
7F
00
00
00
ENDCHAR
STARTCHAR U+E092
ENCODING 57490
SWIDTH 768 0
DWIDTH 8 0
BBX 8 10 0 -2
BITMAP
00
7F
41
CD
DD
41
7F
00
00
00
ENDCHAR
STARTCHAR U+E093
ENCODING 57491
SWIDTH 768 0
DWIDTH 8 0
BBX 8 10 0 -2
BITMAP
00
7F
41
DD
DD
41
7F
00
00
00
ENDCHAR
STARTCHAR U+E094
ENCODING 57492
SWIDTH 768 0
DWIDTH 8 0
BBX 8 10 0 -2
BITMAP
08
4C
8F
AF
AF
8F
4C
08
00
00
ENDCHAR
STARTCHAR U+E095
ENCODING 57493
SWIDTH 768 0
DWIDTH 8 0
BBX 8 10 0 -2
BITMAP
20
30
BE
BE
BE
BE
30
20
00
00
ENDCHAR
STARTCHAR U+E096
ENCODING 57494
SWIDTH 768 0
DWIDTH 8 0
BBX 8 10 0 -2
BITMAP
00
21
23
27
2F
27
23
21
00
00
ENDCHAR
STARTCHAR U+E097
ENCODING 57495
SWIDTH 768 0
DWIDTH 8 0
BBX 8 10 0 -2
BITMAP
00
11
33
77
FF
77
33
11
00
00
ENDCHAR
STARTCHAR U+E098
ENCODING 57496
SWIDTH 768 0
DWIDTH 8 0
BBX 8 10 0 -2
BITMAP
00
1C
3E
7F
7F
7F
3E
1C
00
00
ENDCHAR
STARTCHAR U+E099
ENCODING 57497
SWIDTH 768 0
DWIDTH 8 0
BBX 8 10 0 -2
BITMAP
00
7F
7F
7F
7F
7F
7F
7F
00
00
ENDCHAR
STARTCHAR U+E09A
ENCODING 57498
SWIDTH 768 0
DWIDTH 8 0
BBX 8 10 0 -2
BITMAP
00
08
0C
0E
0F
0E
0C
08
00
00
ENDCHAR
STARTCHAR U+E09B
ENCODING 57499
SWIDTH 768 0
DWIDTH 8 0
BBX 8 10 0 -2
BITMAP
00
1B
1B
1B
1B
1B
1B
1B
00
00
ENDCHAR
STARTCHAR U+E09C
ENCODING 57500
SWIDTH 768 0
DWIDTH 8 0
BBX 8 10 0 -2
BITMAP
00
21
31
39
3D
39
31
21
00
00
ENDCHAR
STARTCHAR U+E09D
ENCODING 57501
SWIDTH 768 0
DWIDTH 8 0
BBX 8 10 0 -2
BITMAP
00
88
CC
EE
FF
EE
CC
88
00
00
ENDCHAR
STARTCHAR U+E09E
ENCODING 57502
SWIDTH 768 0
DWIDTH 8 0
BBX 8 10 0 -2
BITMAP
02
04
0C
18
3F
06
0C
08
10
00
ENDCHAR
STARTCHAR U+E09F
ENCODING 57503
SWIDTH 768 0
DWIDTH 8 0
BBX 8 10 0 -2
BITMAP
FF
81
81
81
81
FF
18
7E
00
00
ENDCHAR
STARTCHAR U+E0A0
ENCODING 57504
SWIDTH 768 0
DWIDTH 8 0
BBX 8 10 0 -2
BITMAP
00
1E
37
3E
3C
3F
1E
00
00
00
ENDCHAR
STARTCHAR U+E0A1
ENCODING 57505
SWIDTH 768 0
DWIDTH 8 0
BBX 8 10 0 -2
BITMAP
18
18
3C
3C
7E
66
E7
C3
00
00
ENDCHAR
STARTCHAR U+E0A2
ENCODING 57506
SWIDTH 768 0
DWIDTH 8 0
BBX 8 10 0 -2
BITMAP
00
1E
37
37
31
3F
1E
00
00
00
ENDCHAR
STARTCHAR U+E0A3
ENCODING 57507
SWIDTH 768 0
DWIDTH 8 0
BBX 8 10 0 -2
BITMAP
00
1C
36
77
71
7F
3E
1C
00
00
ENDCHAR
STARTCHAR U+E0A4
ENCODING 57508
SWIDTH 768 0
DWIDTH 8 0
BBX 8 10 0 -2
BITMAP
00
0C
0F
0C
0F
0C
1E
0C
00
00
ENDCHAR
STARTCHAR U+E0A5
ENCODING 57509
SWIDTH 768 0
DWIDTH 8 0
BBX 8 10 0 -2
BITMAP
00
09
1C
1D
14
22
22
1C
00
00
ENDCHAR
STARTCHAR U+E0A6
ENCODING 57510
SWIDTH 768 0
DWIDTH 8 0
BBX 8 10 0 -2
BITMAP
00
1E
21
21
21
3F
3F
3F
00
00
ENDCHAR
STARTCHAR U+E0A7
ENCODING 57511
SWIDTH 768 0
DWIDTH 8 0
BBX 8 10 0 -2
BITMAP
3F
33
33
33
33
3F
33
3F
00
00
ENDCHAR
STARTCHAR U+E0A8
ENCODING 57512
SWIDTH 768 0
DWIDTH 8 0
BBX 8 10 0 -2
BITMAP
3F
33
3F
33
33
33
33
3F
00
00
ENDCHAR
STARTCHAR U+E0A9
ENCODING 57513
SWIDTH 768 0
DWIDTH 8 0
BBX 8 10 0 -2
BITMAP
00
3C
42
99
99
42
3C
00
00
00
ENDCHAR
STARTCHAR U+E0AA
ENCODING 57514
SWIDTH 768 0
DWIDTH 8 0
BBX 8 10 0 -2
BITMAP
1C
3E
6B
6B
7F
7F
7F
55
00
00
ENDCHAR
STARTCHAR U+E0AB
ENCODING 57515
SWIDTH 768 0
DWIDTH 8 0
BBX 8 10 0 -2
BITMAP
3C
7E
E7
DB
DB
E7
7E
3C
00
00
ENDCHAR
STARTCHAR U+E0AC
ENCODING 57516
SWIDTH 768 0
DWIDTH 8 0
BBX 8 10 0 -2
BITMAP
00
3C
22
39
25
35
3F
00
00
00
ENDCHAR
STARTCHAR U+E0AD
ENCODING 57517
SWIDTH 768 0
DWIDTH 8 0
BBX 8 10 0 -2
BITMAP
7E
81
81
81
81
7A
0C
08
00
00
ENDCHAR
STARTCHAR U+E0AE
ENCODING 57518
SWIDTH 768 0
DWIDTH 8 0
BBX 8 10 0 -2
BITMAP
18
24
66
E7
E7
7E
24
18
00
00
ENDCHAR
STARTCHAR U+E0AF
ENCODING 57519
SWIDTH 768 0
DWIDTH 8 0
BBX 8 10 0 -2
BITMAP
00
3F
21
21
21
3F
0C
3F
00
00
ENDCHAR
STARTCHAR U+E0B0
ENCODING 57520
SWIDTH 768 0
DWIDTH 8 0
BBX 8 10 0 -2
BITMAP
00
04
26
15
0E
15
26
04
00
00
ENDCHAR
STARTCHAR U+E0B1
ENCODING 57521
SWIDTH 768 0
DWIDTH 8 0
BBX 8 10 0 -2
BITMAP
F8
F8
F8
FB
FB
03
1F
1F
00
00
ENDCHAR
STARTCHAR U+E0B2
ENCODING 57522
SWIDTH 768 0
DWIDTH 8 0
BBX 8 10 0 -2
BITMAP
18
3C
7E
FF
42
5A
5A
7E
00
00
ENDCHAR
STARTCHAR U+E0B3
ENCODING 57523
SWIDTH 768 0
DWIDTH 8 0
BBX 8 10 0 -2
BITMAP
07
07
07
07
07
00
07
07
00
00
ENDCHAR
STARTCHAR U+E0B4
ENCODING 57524
SWIDTH 768 0
DWIDTH 8 0
BBX 8 10 0 -2
BITMAP
00
FF
81
81
81
81
81
FF
00
00
ENDCHAR
STARTCHAR U+E0B5
ENCODING 57525
SWIDTH 768 0
DWIDTH 8 0
BBX 8 10 0 -2
BITMAP
00
FF
89
8F
89
8F
89
FF
00
00
ENDCHAR
STARTCHAR U+E0B6
ENCODING 57526
SWIDTH 768 0
DWIDTH 8 0
BBX 8 10 0 -2
BITMAP
00
FF
81
81
FF
A5
A5
FF
00
00
ENDCHAR
STARTCHAR U+E0B7
ENCODING 57527
SWIDTH 768 0
DWIDTH 8 0
BBX 8 10 0 -2
BITMAP
00
FF
81
81
81
FF
81
FF
00
00
ENDCHAR
STARTCHAR U+E0B8
ENCODING 57528
SWIDTH 768 0
DWIDTH 8 0
BBX 8 10 0 -2
BITMAP
00
FF
A5
FF
A5
FF
A5
FF
00
00
ENDCHAR
STARTCHAR U+E0B9
ENCODING 57529
SWIDTH 768 0
DWIDTH 8 0
BBX 8 10 0 -2
BITMAP
00
F8
88
88
FB
01
11
1F
00
00
ENDCHAR
STARTCHAR U+E0BA
ENCODING 57530
SWIDTH 768 0
DWIDTH 8 0
BBX 8 10 0 -2
BITMAP
00
FF
91
9F
95
97
95
FF
00
00
ENDCHAR
STARTCHAR U+E0BB
ENCODING 57531
SWIDTH 768 0
DWIDTH 8 0
BBX 8 10 0 -2
BITMAP
00
FF
91
9F
95
9D
95
FF
00
00
ENDCHAR
STARTCHAR U+E0BC
ENCODING 57532
SWIDTH 768 0
DWIDTH 8 0
BBX 8 10 0 -2
BITMAP
00
FF
89
8F
F9
8F
89
FF
00
00
ENDCHAR
STARTCHAR U+E0BD
ENCODING 57533
SWIDTH 768 0
DWIDTH 8 0
BBX 8 10 0 -2
BITMAP
00
FF
89
89
FF
A5
A5
FF
00
00
ENDCHAR
STARTCHAR U+E0BE
ENCODING 57534
SWIDTH 768 0
DWIDTH 8 0
BBX 8 10 0 -2
BITMAP
00
FF
89
89
F9
81
81
FF
00
00
ENDCHAR
STARTCHAR U+E0BF
ENCODING 57535
SWIDTH 768 0
DWIDTH 8 0
BBX 8 10 0 -2
BITMAP
18
24
42
FF
42
5A
5A
7E
00
00
ENDCHAR
STARTCHAR U+E0C0
ENCODING 57536
SWIDTH 768 0
DWIDTH 8 0
BBX 8 10 0 -2
BITMAP
00
63
5D
22
22
22
5D
63
00
00
ENDCHAR
STARTCHAR U+E0C1
ENCODING 57537
SWIDTH 768 0
DWIDTH 8 0
BBX 8 10 0 -2
BITMAP
C3
BD
42
42
42
42
BD
C3
00
00
ENDCHAR
STARTCHAR U+E0C2
ENCODING 57538
SWIDTH 768 0
DWIDTH 8 0
BBX 8 10 0 -2
BITMAP
00
41
3E
22
22
22
3E
41
00
00
ENDCHAR
STARTCHAR U+E0C3
ENCODING 57539
SWIDTH 768 0
DWIDTH 8 0
BBX 8 10 0 -2
BITMAP
81
7E
42
42
42
42
7E
81
00
00
ENDCHAR
STARTCHAR U+E0C4
ENCODING 57540
SWIDTH 768 0
DWIDTH 8 0
BBX 8 10 0 -2
BITMAP
00
55
00
7F
41
7F
00
55
00
00
ENDCHAR
STARTCHAR U+E0C5
ENCODING 57541
SWIDTH 768 0
DWIDTH 8 0
BBX 8 10 0 -2
BITMAP
55
00
7F
41
41
7F
00
55
00
00
ENDCHAR
STARTCHAR U+E0C6
ENCODING 57542
SWIDTH 768 0
DWIDTH 8 0
BBX 8 10 0 -2
BITMAP
00
1C
3E
6B
6B
7F
7F
55
00
00
ENDCHAR
STARTCHAR U+E0C7
ENCODING 57543
SWIDTH 768 0
DWIDTH 8 0
BBX 8 10 0 -2
BITMAP
00
1C
3E
6B
7F
7F
7F
55
00
00
ENDCHAR
STARTCHAR U+E0C8
ENCODING 57544
SWIDTH 768 0
DWIDTH 8 0
BBX 8 10 0 -2
BITMAP
1C
3E
6B
7F
7F
7F
7F
55
00
00
ENDCHAR
STARTCHAR U+E0C9
ENCODING 57545
SWIDTH 768 0
DWIDTH 8 0
BBX 8 10 0 -2
BITMAP
00
26
8E
1C
68
90
90
60
00
00
ENDCHAR
STARTCHAR U+E0CA
ENCODING 57546
SWIDTH 768 0
DWIDTH 8 0
BBX 8 10 0 -2
BITMAP
13
05
4A
14
68
90
90
60
00
00
ENDCHAR
STARTCHAR U+E0CB
ENCODING 57547
SWIDTH 768 0
DWIDTH 8 0
BBX 8 10 0 -2
BITMAP
00
26
8A
14
68
90
90
60
00
00
ENDCHAR
STARTCHAR U+E0CC
ENCODING 57548
SWIDTH 768 0
DWIDTH 8 0
BBX 8 10 0 -2
BITMAP
09
1C
15
14
15
22
22
1C
00
00
ENDCHAR
STARTCHAR U+E0CD
ENCODING 57549
SWIDTH 768 0
DWIDTH 8 0
BBX 8 10 0 -2
BITMAP
00
09
1C
15
14
22
22
1C
00
00
ENDCHAR
STARTCHAR U+E0CE
ENCODING 57550
SWIDTH 768 0
DWIDTH 8 0
BBX 8 10 0 -2
BITMAP
00
1C
17
14
17
14
22
1C
00
00
ENDCHAR
STARTCHAR U+E0CF
ENCODING 57551
SWIDTH 768 0
DWIDTH 8 0
BBX 8 10 0 -2
BITMAP
1C
17
14
17
14
22
22
1C
00
00
ENDCHAR
STARTCHAR U+E0D0
ENCODING 57552
SWIDTH 768 0
DWIDTH 8 0
BBX 8 10 0 -2
BITMAP
18
24
42
E7
24
24
24
3C
00
00
ENDCHAR
STARTCHAR U+E0D1
ENCODING 57553
SWIDTH 768 0
DWIDTH 8 0
BBX 8 10 0 -2
BITMAP
3C
24
24
24
E7
42
24
18
00
00
ENDCHAR
STARTCHAR U+E0D2
ENCODING 57554
SWIDTH 768 0
DWIDTH 8 0
BBX 8 10 0 -2
BITMAP
08
0C
FA
81
81
FA
0C
08
00
00
ENDCHAR
STARTCHAR U+E0D3
ENCODING 57555
SWIDTH 768 0
DWIDTH 8 0
BBX 8 10 0 -2
BITMAP
10
30
5F
81
81
5F
30
10
00
00
ENDCHAR
STARTCHAR U+E0D4
ENCODING 57556
SWIDTH 768 0
DWIDTH 8 0
BBX 8 10 0 -2
BITMAP
00
08
14
22
77
14
14
1C
00
00
ENDCHAR
STARTCHAR U+E0D5
ENCODING 57557
SWIDTH 768 0
DWIDTH 8 0
BBX 8 10 0 -2
BITMAP
00
1C
14
14
77
22
14
08
00
00
ENDCHAR
STARTCHAR U+E0D6
ENCODING 57558
SWIDTH 768 0
DWIDTH 8 0
BBX 8 10 0 -2
BITMAP
00
08
0C
7A
41
7A
0C
08
00
00
ENDCHAR
STARTCHAR U+E0D7
ENCODING 57559
SWIDTH 768 0
DWIDTH 8 0
BBX 8 10 0 -2
BITMAP
00
10
30
5E
82
5E
30
10
00
00
ENDCHAR
STARTCHAR U+E0D8
ENCODING 57560
SWIDTH 768 0
DWIDTH 8 0
BBX 8 10 0 -2
BITMAP
00
18
28
CF
88
CF
28
18
00
00
ENDCHAR
STARTCHAR U+E0D9
ENCODING 57561
SWIDTH 768 0
DWIDTH 8 0
BBX 8 10 0 -2
BITMAP
18
28
4F
88
88
4F
28
18
00
00
ENDCHAR
STARTCHAR U+E0DA
ENCODING 57562
SWIDTH 768 0
DWIDTH 8 0
BBX 8 10 0 -2
BITMAP
12
12
12
3F
21
12
0C
0C
00
00
ENDCHAR
STARTCHAR U+E0DB
ENCODING 57563
SWIDTH 768 0
DWIDTH 8 0
BBX 8 10 0 -2
BITMAP
00
12
12
3F
21
12
0C
0C
00
00
ENDCHAR
STARTCHAR U+E0DC
ENCODING 57564
SWIDTH 768 0
DWIDTH 8 0
BBX 8 10 0 -2
BITMAP
00
3C
42
94
88
8F
42
3C
00
00
ENDCHAR
STARTCHAR U+E0DD
ENCODING 57565
SWIDTH 768 0
DWIDTH 8 0
BBX 8 10 0 -2
BITMAP
18
24
24
42
42
99
A5
C3
00
00
ENDCHAR
STARTCHAR U+E0DE
ENCODING 57566
SWIDTH 768 0
DWIDTH 8 0
BBX 8 10 0 -2
BITMAP
3C
42
92
84
88
87
42
3C
00
00
ENDCHAR
STARTCHAR U+E0DF
ENCODING 57567
SWIDTH 768 0
DWIDTH 8 0
BBX 8 10 0 -2
BITMAP
00
08
14
14
22
2A
55
63
00
00
ENDCHAR
STARTCHAR U+E0E0
ENCODING 57568
SWIDTH 768 0
DWIDTH 8 0
BBX 8 10 0 -2
BITMAP
10
32
D1
95
95
D1
32
10
00
00
ENDCHAR
STARTCHAR U+E0E1
ENCODING 57569
SWIDTH 768 0
DWIDTH 8 0
BBX 8 10 0 -2
BITMAP
00
10
32
D1
95
D1
32
10
00
00
ENDCHAR
STARTCHAR U+E0E2
ENCODING 57570
SWIDTH 768 0
DWIDTH 8 0
BBX 8 10 0 -2
BITMAP
04
0C
75
45
45
75
0C
04
00
00
ENDCHAR
STARTCHAR U+E0E3
ENCODING 57571
SWIDTH 768 0
DWIDTH 8 0
BBX 8 10 0 -2
BITMAP
00
04
0C
75
45
75
0C
04
00
00
ENDCHAR
STARTCHAR U+E0E4
ENCODING 57572
SWIDTH 768 0
DWIDTH 8 0
BBX 8 10 0 -2
BITMAP
21
23
25
29
29
25
23
21
00
00
ENDCHAR
STARTCHAR U+E0E5
ENCODING 57573
SWIDTH 768 0
DWIDTH 8 0
BBX 8 10 0 -2
BITMAP
11
33
55
99
99
55
33
11
00
00
ENDCHAR
STARTCHAR U+E0E6
ENCODING 57574
SWIDTH 768 0
DWIDTH 8 0
BBX 8 10 0 -2
BITMAP
3C
42
81
81
81
81
42
3C
00
00
ENDCHAR
STARTCHAR U+E0E7
ENCODING 57575
SWIDTH 768 0
DWIDTH 8 0
BBX 8 10 0 -2
BITMAP
FF
81
81
81
81
81
81
FF
00
00
ENDCHAR
STARTCHAR U+E0E8
ENCODING 57576
SWIDTH 768 0
DWIDTH 8 0
BBX 8 10 0 -2
BITMAP
08
0C
0A
09
09
0A
0C
08
00
00
ENDCHAR
STARTCHAR U+E0E9
ENCODING 57577
SWIDTH 768 0
DWIDTH 8 0
BBX 8 10 0 -2
BITMAP
09
09
09
09
09
09
09
09
00
00
ENDCHAR
STARTCHAR U+E0EA
ENCODING 57578
SWIDTH 768 0
DWIDTH 8 0
BBX 8 10 0 -2
BITMAP
21
31
29
25
25
29
31
21
00
00
ENDCHAR
STARTCHAR U+E0EB
ENCODING 57579
SWIDTH 768 0
DWIDTH 8 0
BBX 8 10 0 -2
BITMAP
88
CC
AA
99
99
AA
CC
88
00
00
ENDCHAR
STARTCHAR U+E0EC
ENCODING 57580
SWIDTH 768 0
DWIDTH 8 0
BBX 8 10 0 -2
BITMAP
00
1F
11
11
11
33
55
66
00
00
ENDCHAR
STARTCHAR U+E0ED
ENCODING 57581
SWIDTH 768 0
DWIDTH 8 0
BBX 8 10 0 -2
BITMAP
1F
11
11
11
11
33
55
66
00
00
ENDCHAR
STARTCHAR U+E0EE
ENCODING 57582
SWIDTH 768 0
DWIDTH 8 0
BBX 8 10 0 -2
BITMAP
00
00
00
00
01
01
05
05
00
00
ENDCHAR
STARTCHAR U+E0EF
ENCODING 57583
SWIDTH 768 0
DWIDTH 8 0
BBX 8 10 0 -2
BITMAP
00
00
01
01
05
05
15
15
00
00
ENDCHAR
STARTCHAR U+E0F0
ENCODING 57584
SWIDTH 768 0
DWIDTH 8 0
BBX 8 10 0 -2
BITMAP
01
01
05
05
15
15
55
55
00
00
ENDCHAR
STARTCHAR U+E0F1
ENCODING 57585
SWIDTH 768 0
DWIDTH 8 0
BBX 8 10 0 -2
BITMAP
00
00
00
00
00
01
01
05
00
00
ENDCHAR
STARTCHAR U+E0F2
ENCODING 57586
SWIDTH 768 0
DWIDTH 8 0
BBX 8 10 0 -2
BITMAP
00
00
00
01
01
05
05
15
00
00
ENDCHAR
STARTCHAR U+E0F3
ENCODING 57587
SWIDTH 768 0
DWIDTH 8 0
BBX 8 10 0 -2
BITMAP
00
01
01
05
05
15
15
55
00
00
ENDCHAR
STARTCHAR U+E0F4
ENCODING 57588
SWIDTH 768 0
DWIDTH 8 0
BBX 8 10 0 -2
BITMAP
00
21
23
25
29
25
23
21
00
00
ENDCHAR
STARTCHAR U+E0F5
ENCODING 57589
SWIDTH 768 0
DWIDTH 8 0
BBX 8 10 0 -2
BITMAP
00
11
33
55
99
55
33
11
00
00
ENDCHAR
STARTCHAR U+E0F6
ENCODING 57590
SWIDTH 768 0
DWIDTH 8 0
BBX 8 10 0 -2
BITMAP
00
1C
22
41
41
41
22
1C
00
00
ENDCHAR
STARTCHAR U+E0F7
ENCODING 57591
SWIDTH 768 0
DWIDTH 8 0
BBX 8 10 0 -2
BITMAP
00
7F
41
41
41
41
41
7F
00
00
ENDCHAR
STARTCHAR U+E0F8
ENCODING 57592
SWIDTH 768 0
DWIDTH 8 0
BBX 8 10 0 -2
BITMAP
00
08
0C
0A
09
0A
0C
08
00
00
ENDCHAR
STARTCHAR U+E0F9
ENCODING 57593
SWIDTH 768 0
DWIDTH 8 0
BBX 8 10 0 -2
BITMAP
00
09
09
09
09
09
09
09
00
00
ENDCHAR
STARTCHAR U+E0FA
ENCODING 57594
SWIDTH 768 0
DWIDTH 8 0
BBX 8 10 0 -2
BITMAP
00
21
31
29
25
29
31
21
00
00
ENDCHAR
STARTCHAR U+E0FB
ENCODING 57595
SWIDTH 768 0
DWIDTH 8 0
BBX 8 10 0 -2
BITMAP
00
88
CC
AA
99
AA
CC
88
00
00
ENDCHAR
STARTCHAR U+E0FC
ENCODING 57596
SWIDTH 768 0
DWIDTH 8 0
BBX 8 10 0 -2
BITMAP
00
3C
42
81
81
E7
A5
66
00
00
ENDCHAR
STARTCHAR U+E0FD
ENCODING 57597
SWIDTH 768 0
DWIDTH 8 0
BBX 8 10 0 -2
BITMAP
00
3C
42
81
81
E7
E7
66
00
00
ENDCHAR
STARTCHAR U+E0FE
ENCODING 57598
SWIDTH 768 0
DWIDTH 8 0
BBX 8 10 0 -2
BITMAP
00
1F
1F
11
11
33
77
66
00
00
ENDCHAR
STARTCHAR U+E0FF
ENCODING 57599
SWIDTH 768 0
DWIDTH 8 0
BBX 8 10 0 -2
BITMAP
07
07
00
07
07
07
07
07
00
00
ENDCHAR
STARTCHAR U+E100
ENCODING 57600
SWIDTH 768 0
DWIDTH 8 0
BBX 8 10 0 -2
BITMAP
00
79
3F
23
6B
62
7E
4F
00
00
ENDCHAR
STARTCHAR U+E101
ENCODING 57601
SWIDTH 768 0
DWIDTH 8 0
BBX 8 10 0 -2
BITMAP
00
39
1F
13
32
3E
27
00
00
00
ENDCHAR
STARTCHAR U+E102
ENCODING 57602
SWIDTH 768 0
DWIDTH 8 0
BBX 8 10 0 -2
BITMAP
00
FF
C3
A5
99
81
FF
00
00
00
ENDCHAR
STARTCHAR U+E103
ENCODING 57603
SWIDTH 768 0
DWIDTH 8 0
BBX 8 10 0 -2
BITMAP
00
FF
7E
BD
C3
FF
FF
00
00
00
ENDCHAR
STARTCHAR U+E104
ENCODING 57604
SWIDTH 768 0
DWIDTH 8 0
BBX 8 10 0 -2
BITMAP
18
3C
7E
FF
FF
7E
3C
18
00
00
ENDCHAR
STARTCHAR U+E105
ENCODING 57605
SWIDTH 768 0
DWIDTH 8 0
BBX 8 10 0 -2
BITMAP
00
08
1C
3E
7F
3E
1C
08
00
00
ENDCHAR
STARTCHAR U+E106
ENCODING 57606
SWIDTH 768 0
DWIDTH 8 0
BBX 8 10 0 -2
BITMAP
66
FF
FF
FF
FF
7E
3C
18
00
00
ENDCHAR
STARTCHAR U+E107
ENCODING 57607
SWIDTH 768 0
DWIDTH 8 0
BBX 8 10 0 -2
BITMAP
00
66
FF
FF
FF
7E
3C
18
00
00
ENDCHAR
STARTCHAR U+E108
ENCODING 57608
SWIDTH 768 0
DWIDTH 8 0
BBX 8 10 0 -2
BITMAP
08
14
22
77
14
14
14
1C
00
00
ENDCHAR
STARTCHAR U+E109
ENCODING 57609
SWIDTH 768 0
DWIDTH 8 0
BBX 8 10 0 -2
BITMAP
1C
14
14
14
77
22
14
08
00
00
ENDCHAR
STARTCHAR U+E10A
ENCODING 57610
SWIDTH 768 0
DWIDTH 8 0
BBX 8 10 0 -2
BITMAP
00
08
0C
FA
81
FA
0C
08
00
00
ENDCHAR
STARTCHAR U+E10B
ENCODING 57611
SWIDTH 768 0
DWIDTH 8 0
BBX 8 10 0 -2
BITMAP
00
10
30
5F
81
5F
30
10
00
00
ENDCHAR
STARTCHAR U+E10C
ENCODING 57612
SWIDTH 768 0
DWIDTH 8 0
BBX 8 10 0 -2
BITMAP
08
08
2A
49
49
41
22
1C
00
00
ENDCHAR
STARTCHAR U+E10D
ENCODING 57613
SWIDTH 768 0
DWIDTH 8 0
BBX 8 10 0 -2
BITMAP
00
08
2A
49
49
41
22
1C
00
00
ENDCHAR
STARTCHAR U+E10E
ENCODING 57614
SWIDTH 768 0
DWIDTH 8 0
BBX 8 10 0 -2
BITMAP
00
08
14
22
7F
22
2A
3E
00
00
ENDCHAR
STARTCHAR U+E10F
ENCODING 57615
SWIDTH 768 0
DWIDTH 8 0
BBX 8 10 0 -2
BITMAP
00
12
17
12
12
12
3A
12
00
00
ENDCHAR
STARTCHAR U+E110
ENCODING 57616
SWIDTH 768 0
DWIDTH 8 0
BBX 8 10 0 -2
BITMAP
00
04
1F
11
11
11
11
1F
00
00
ENDCHAR
STARTCHAR U+E111
ENCODING 57617
SWIDTH 768 0
DWIDTH 8 0
BBX 8 10 0 -2
BITMAP
00
04
1F
11
11
15
11
1F
00
00
ENDCHAR
STARTCHAR U+E112
ENCODING 57618
SWIDTH 768 0
DWIDTH 8 0
BBX 8 10 0 -2
BITMAP
00
04
1F
11
15
15
11
1F
00
00
ENDCHAR
STARTCHAR U+E113
ENCODING 57619
SWIDTH 768 0
DWIDTH 8 0
BBX 8 10 0 -2
BITMAP
00
00
FE
82
83
82
FE
00
00
00
ENDCHAR
STARTCHAR U+E114
ENCODING 57620
SWIDTH 768 0
DWIDTH 8 0
BBX 8 10 0 -2
BITMAP
00
00
FE
82
A3
82
FE
00
00
00
ENDCHAR
STARTCHAR U+E115
ENCODING 57621
SWIDTH 768 0
DWIDTH 8 0
BBX 8 10 0 -2
BITMAP
00
00
FE
82
B3
82
FE
00
00
00
ENDCHAR
STARTCHAR U+E116
ENCODING 57622
SWIDTH 768 0
DWIDTH 8 0
BBX 8 10 0 -2
BITMAP
00
00
FE
82
BB
82
FE
00
00
00
ENDCHAR
STARTCHAR U+E117
ENCODING 57623
SWIDTH 768 0
DWIDTH 8 0
BBX 8 10 0 -2
BITMAP
00
00
7F
41
C1
41
7F
00
00
00
ENDCHAR
STARTCHAR U+E118
ENCODING 57624
SWIDTH 768 0
DWIDTH 8 0
BBX 8 10 0 -2
BITMAP
00
00
7F
41
C5
41
7F
00
00
00
ENDCHAR
STARTCHAR U+E119
ENCODING 57625
SWIDTH 768 0
DWIDTH 8 0
BBX 8 10 0 -2
BITMAP
00
00
7F
41
CD
41
7F
00
00
00
ENDCHAR
STARTCHAR U+E11A
ENCODING 57626
SWIDTH 768 0
DWIDTH 8 0
BBX 8 10 0 -2
BITMAP
00
00
7F
41
DD
41
7F
00
00
00
ENDCHAR
STARTCHAR U+E11B
ENCODING 57627
SWIDTH 768 0
DWIDTH 8 0
BBX 8 10 0 -2
BITMAP
08
4C
8B
A9
A9
8B
4C
08
00
00
ENDCHAR
STARTCHAR U+E11C
ENCODING 57628
SWIDTH 768 0
DWIDTH 8 0
BBX 8 10 0 -2
BITMAP
00
08
4C
8B
A9
8B
4C
08
00
00
ENDCHAR
STARTCHAR U+E11D
ENCODING 57629
SWIDTH 768 0
DWIDTH 8 0
BBX 8 10 0 -2
BITMAP
20
30
AE
A2
A2
AE
30
20
00
00
ENDCHAR
STARTCHAR U+E11E
ENCODING 57630
SWIDTH 768 0
DWIDTH 8 0
BBX 8 10 0 -2
BITMAP
00
20
30
AE
A2
AE
30
20
00
00
ENDCHAR
STARTCHAR U+E11F
ENCODING 57631
SWIDTH 768 0
DWIDTH 8 0
BBX 8 10 0 -2
BITMAP
00
00
02
7F
02
20
7F
20
00
00
ENDCHAR
STARTCHAR U+E120
ENCODING 57632
SWIDTH 768 0
DWIDTH 8 0
BBX 8 10 0 -2
BITMAP
00
7F
41
63
5D
41
41
7F
00
00
ENDCHAR
STARTCHAR U+E121
ENCODING 57633
SWIDTH 768 0
DWIDTH 8 0
BBX 8 10 0 -2
BITMAP
00
7F
3E
5D
63
7F
7F
7F
00
00
ENDCHAR
STARTCHAR U+E122
ENCODING 57634
SWIDTH 768 0
DWIDTH 8 0
BBX 8 10 0 -2
BITMAP
00
7F
41
63
5D
41
7F
00
00
00
ENDCHAR
STARTCHAR U+E123
ENCODING 57635
SWIDTH 768 0
DWIDTH 8 0
BBX 8 10 0 -2
BITMAP
00
7F
3E
5D
63
7F
7F
00
00
00
ENDCHAR
STARTCHAR U+E124
ENCODING 57636
SWIDTH 768 0
DWIDTH 8 0
BBX 8 10 0 -2
BITMAP
00
7F
63
55
49
41
41
7F
00
00
ENDCHAR
STARTCHAR U+E125
ENCODING 57637
SWIDTH 768 0
DWIDTH 8 0
BBX 8 10 0 -2
BITMAP
00
7F
63
55
49
41
7F
00
00
00
ENDCHAR
STARTCHAR U+E126
ENCODING 57638
SWIDTH 768 0
DWIDTH 8 0
BBX 8 10 0 -2
BITMAP
00
00
7F
63
5D
41
7F
00
00
00
ENDCHAR
STARTCHAR U+E127
ENCODING 57639
SWIDTH 768 0
DWIDTH 8 0
BBX 8 10 0 -2
BITMAP
00
00
7F
3E
5D
63
7F
00
00
00
ENDCHAR
STARTCHAR U+E128
ENCODING 57640
SWIDTH 768 0
DWIDTH 8 0
BBX 8 10 0 -2
BITMAP
00
1C
22
49
4D
41
22
1C
00
00
ENDCHAR
STARTCHAR U+E129
ENCODING 57641
SWIDTH 768 0
DWIDTH 8 0
BBX 8 10 0 -2
BITMAP
00
08
14
2A
4D
22
14
08
00
00
ENDCHAR
STARTCHAR U+E12A
ENCODING 57642
SWIDTH 768 0
DWIDTH 8 0
BBX 8 10 0 -2
BITMAP
00
7F
41
49
4D
41
41
7F
00
00
ENDCHAR
STARTCHAR U+E12B
ENCODING 57643
SWIDTH 768 0
DWIDTH 8 0
BBX 8 10 0 -2
BITMAP
04
0E
1F
04
04
04
04
04
00
00
ENDCHAR
STARTCHAR U+E12C
ENCODING 57644
SWIDTH 768 0
DWIDTH 8 0
BBX 8 10 0 -2
BITMAP
04
04
04
04
04
1F
0E
04
00
00
ENDCHAR
STARTCHAR U+E12D
ENCODING 57645
SWIDTH 768 0
DWIDTH 8 0
BBX 8 10 0 -2
BITMAP
00
04
06
FF
06
04
00
00
00
00
ENDCHAR
STARTCHAR U+E12E
ENCODING 57646
SWIDTH 768 0
DWIDTH 8 0
BBX 8 10 0 -2
BITMAP
00
20
60
FF
60
20
00
00
00
00
ENDCHAR
STARTCHAR U+E12F
ENCODING 57647
SWIDTH 768 0
DWIDTH 8 0
BBX 8 10 0 -2
BITMAP
24
2E
24
24
24
24
74
24
00
00
ENDCHAR
STARTCHAR U+E130
ENCODING 57648
SWIDTH 768 0
DWIDTH 8 0
BBX 8 10 0 -2
BITMAP
FF
81
81
81
81
81
81
FF
00
00
ENDCHAR
STARTCHAR U+E131
ENCODING 57649
SWIDTH 768 0
DWIDTH 8 0
BBX 8 10 0 -2
BITMAP
FF
89
8F
89
89
8F
89
FF
00
00
ENDCHAR
STARTCHAR U+E132
ENCODING 57650
SWIDTH 768 0
DWIDTH 8 0
BBX 8 10 0 -2
BITMAP
FF
81
81
81
FF
A5
A5
FF
00
00
ENDCHAR
STARTCHAR U+E133
ENCODING 57651
SWIDTH 768 0
DWIDTH 8 0
BBX 8 10 0 -2
BITMAP
FF
81
81
FF
81
FF
81
FF
00
00
ENDCHAR
STARTCHAR U+E134
ENCODING 57652
SWIDTH 768 0
DWIDTH 8 0
BBX 8 10 0 -2
BITMAP
FF
A5
FF
A5
A5
FF
A5
FF
00
00
ENDCHAR
STARTCHAR U+E135
ENCODING 57653
SWIDTH 768 0
DWIDTH 8 0
BBX 8 10 0 -2
BITMAP
F8
88
88
8B
F9
01
11
1F
00
00
ENDCHAR
STARTCHAR U+E136
ENCODING 57654
SWIDTH 768 0
DWIDTH 8 0
BBX 8 10 0 -2
BITMAP
FF
91
91
9F
95
97
95
FF
00
00
ENDCHAR
STARTCHAR U+E137
ENCODING 57655
SWIDTH 768 0
DWIDTH 8 0
BBX 8 10 0 -2
BITMAP
FF
91
91
9F
95
9D
95
FF
00
00
ENDCHAR
STARTCHAR U+E138
ENCODING 57656
SWIDTH 768 0
DWIDTH 8 0
BBX 8 10 0 -2
BITMAP
FF
91
9F
91
F1
9F
91
FF
00
00
ENDCHAR
STARTCHAR U+E139
ENCODING 57657
SWIDTH 768 0
DWIDTH 8 0
BBX 8 10 0 -2
BITMAP
FF
89
89
89
FF
A5
A5
FF
00
00
ENDCHAR
STARTCHAR U+E13A
ENCODING 57658
SWIDTH 768 0
DWIDTH 8 0
BBX 8 10 0 -2
BITMAP
FF
89
89
89
F9
81
81
FF
00
00
ENDCHAR
STARTCHAR U+E13B
ENCODING 57659
SWIDTH 768 0
DWIDTH 8 0
BBX 8 10 0 -2
BITMAP
00
04
0E
1F
04
04
04
04
00
00
ENDCHAR
STARTCHAR U+E13C
ENCODING 57660
SWIDTH 768 0
DWIDTH 8 0
BBX 8 10 0 -2
BITMAP
00
04
04
04
04
1F
0E
04
00
00
ENDCHAR
STARTCHAR U+E13D
ENCODING 57661
SWIDTH 768 0
DWIDTH 8 0
BBX 8 10 0 -2
BITMAP
00
00
04
06
7F
06
04
00
00
00
ENDCHAR
STARTCHAR U+E13E
ENCODING 57662
SWIDTH 768 0
DWIDTH 8 0
BBX 8 10 0 -2
BITMAP
00
00
10
30
7F
30
10
00
00
00
ENDCHAR
STARTCHAR U+E13F
ENCODING 57663
SWIDTH 768 0
DWIDTH 8 0
BBX 8 10 0 -2
BITMAP
00
00
02
FF
02
40
FF
40
00
00
ENDCHAR
STARTCHAR U+E140
ENCODING 57664
SWIDTH 768 0
DWIDTH 8 0
BBX 8 10 0 -2
BITMAP
1C
22
55
55
41
41
6B
55
00
00
ENDCHAR
STARTCHAR U+E141
ENCODING 57665
SWIDTH 768 0
DWIDTH 8 0
BBX 8 10 0 -2
BITMAP
00
1C
22
55
55
41
6B
55
00
00
ENDCHAR
STARTCHAR U+E142
ENCODING 57666
SWIDTH 768 0
DWIDTH 8 0
BBX 8 10 0 -2
BITMAP
1C
22
55
41
41
41
6B
55
00
00
ENDCHAR
STARTCHAR U+E143
ENCODING 57667
SWIDTH 768 0
DWIDTH 8 0
BBX 8 10 0 -2
BITMAP
00
1C
22
55
41
41
6B
55
00
00
ENDCHAR
STARTCHAR U+E144
ENCODING 57668
SWIDTH 768 0
DWIDTH 8 0
BBX 8 10 0 -2
BITMAP
00
7F
41
41
5D
55
55
3F
00
00
ENDCHAR
STARTCHAR U+E145
ENCODING 57669
SWIDTH 768 0
DWIDTH 8 0
BBX 8 10 0 -2
BITMAP
00
7F
41
41
5D
5D
5D
3F
00
00
ENDCHAR
STARTCHAR U+E146
ENCODING 57670
SWIDTH 768 0
DWIDTH 8 0
BBX 8 10 0 -2
BITMAP
FF
81
81
81
BD
A5
A5
7F
00
00
ENDCHAR
STARTCHAR U+E147
ENCODING 57671
SWIDTH 768 0
DWIDTH 8 0
BBX 8 10 0 -2
BITMAP
FF
81
81
81
BD
AD
AD
7F
00
00
ENDCHAR
STARTCHAR U+E148
ENCODING 57672
SWIDTH 768 0
DWIDTH 8 0
BBX 8 10 0 -2
BITMAP
00
1C
1C
7F
7F
55
7F
7F
00
00
ENDCHAR
STARTCHAR U+E149
ENCODING 57673
SWIDTH 768 0
DWIDTH 8 0
BBX 8 10 0 -2
BITMAP
1C
1C
7F
7F
7F
55
7F
7F
00
00
ENDCHAR
STARTCHAR U+E14A
ENCODING 57674
SWIDTH 768 0
DWIDTH 8 0
BBX 8 10 0 -2
BITMAP
00
FF
81
81
81
FF
18
7E
00
00
ENDCHAR
STARTCHAR U+E14B
ENCODING 57675
SWIDTH 768 0
DWIDTH 8 0
BBX 8 10 0 -2
BITMAP
3F
3F
00
1E
1E
00
0C
0C
00
00
ENDCHAR
STARTCHAR U+E14C
ENCODING 57676
SWIDTH 768 0
DWIDTH 8 0
BBX 8 10 0 -2
BITMAP
00
03
1B
DB
DB
1B
03
00
00
00
ENDCHAR
STARTCHAR U+E14D
ENCODING 57677
SWIDTH 768 0
DWIDTH 8 0
BBX 8 10 0 -2
BITMAP
00
3C
6E
FC
F8
F0
7E
3C
00
00
ENDCHAR
STARTCHAR U+E14E
ENCODING 57678
SWIDTH 768 0
DWIDTH 8 0
BBX 8 10 0 -2
BITMAP
00
03
0F
3F
7F
3F
0F
03
00
00
ENDCHAR
STARTCHAR U+E14F
ENCODING 57679
SWIDTH 768 0
DWIDTH 8 0
BBX 8 10 0 -2
BITMAP
00
60
78
7E
7F
7E
78
60
00
00
ENDCHAR
STARTCHAR U+E150
ENCODING 57680
SWIDTH 768 0
DWIDTH 8 0
BBX 8 10 0 -2
BITMAP
00
18
2C
6E
E3
7E
3C
18
00
00
ENDCHAR
STARTCHAR U+E151
ENCODING 57681
SWIDTH 768 0
DWIDTH 8 0
BBX 8 10 0 -2
BITMAP
00
00
1C
36
77
71
7F
3E
1C
00
ENDCHAR
STARTCHAR U+E152
ENCODING 57682
SWIDTH 768 0
DWIDTH 8 0
BBX 8 10 0 -2
BITMAP
00
00
10
32
F1
F5
F1
32
10
00
ENDCHAR
STARTCHAR U+E153
ENCODING 57683
SWIDTH 768 0
DWIDTH 8 0
BBX 8 10 0 -2
BITMAP
00
18
3C
7E
FF
FF
7E
18
3C
00
ENDCHAR
STARTCHAR U+E154
ENCODING 57684
SWIDTH 768 0
DWIDTH 8 0
BBX 8 10 0 -2
BITMAP
00
00
18
3C
7E
FF
7E
18
3C
00
ENDCHAR
STARTCHAR U+E155
ENCODING 57685
SWIDTH 768 0
DWIDTH 8 0
BBX 8 10 0 -2
BITMAP
00
18
3C
7E
FF
3C
3C
3C
00
00
ENDCHAR
STARTCHAR U+E156
ENCODING 57686
SWIDTH 768 0
DWIDTH 8 0
BBX 8 10 0 -2
BITMAP
00
3C
3C
3C
FF
7E
3C
18
00
00
ENDCHAR
STARTCHAR U+E157
ENCODING 57687
SWIDTH 768 0
DWIDTH 8 0
BBX 8 10 0 -2
BITMAP
00
08
0C
7E
7F
7E
0C
08
00
00
ENDCHAR
STARTCHAR U+E158
ENCODING 57688
SWIDTH 768 0
DWIDTH 8 0
BBX 8 10 0 -2
BITMAP
00
10
30
7E
FE
7E
30
10
00
00
ENDCHAR
STARTCHAR U+E159
ENCODING 57689
SWIDTH 768 0
DWIDTH 8 0
BBX 8 10 0 -2
BITMAP
00
18
3C
7E
FF
00
FF
00
00
00
ENDCHAR
STARTCHAR U+E15A
ENCODING 57690
SWIDTH 768 0
DWIDTH 8 0
BBX 8 10 0 -2
BITMAP
00
08
1C
3E
7F
00
7F
00
00
00
ENDCHAR
STARTCHAR U+E15B
ENCODING 57691
SWIDTH 768 0
DWIDTH 8 0
BBX 8 10 0 -2
BITMAP
00
00
FE
82
83
83
82
FE
00
00
ENDCHAR
STARTCHAR U+E15C
ENCODING 57692
SWIDTH 768 0
DWIDTH 8 0
BBX 8 10 0 -2
BITMAP
00
00
FE
82
A3
B3
82
FE
00
00
ENDCHAR
STARTCHAR U+E15D
ENCODING 57693
SWIDTH 768 0
DWIDTH 8 0
BBX 8 10 0 -2
BITMAP
00
00
FE
82
B3
BB
82
FE
00
00
ENDCHAR
STARTCHAR U+E15E
ENCODING 57694
SWIDTH 768 0
DWIDTH 8 0
BBX 8 10 0 -2
BITMAP
00
00
FE
82
BB
BB
82
FE
00
00
ENDCHAR
STARTCHAR U+E15F
ENCODING 57695
SWIDTH 768 0
DWIDTH 8 0
BBX 8 10 0 -2
BITMAP
00
1C
36
36
3E
36
36
1C
00
00
ENDCHAR
STARTCHAR U+E160
ENCODING 57696
SWIDTH 768 0
DWIDTH 8 0
BBX 8 10 0 -2
BITMAP
00
0C
1C
0C
0C
0C
0C
1E
00
00
ENDCHAR
STARTCHAR U+E161
ENCODING 57697
SWIDTH 768 0
DWIDTH 8 0
BBX 8 10 0 -2
BITMAP
00
1C
36
06
0C
18
30
3E
00
00
ENDCHAR
STARTCHAR U+E162
ENCODING 57698
SWIDTH 768 0
DWIDTH 8 0
BBX 8 10 0 -2
BITMAP
00
1C
36
06
1C
06
36
1C
00
00
ENDCHAR
STARTCHAR U+E163
ENCODING 57699
SWIDTH 768 0
DWIDTH 8 0
BBX 8 10 0 -2
BITMAP
00
06
0E
16
26
3F
06
06
00
00
ENDCHAR
STARTCHAR U+E164
ENCODING 57700
SWIDTH 768 0
DWIDTH 8 0
BBX 8 10 0 -2
BITMAP
00
3E
30
3C
06
06
36
1C
00
00
ENDCHAR
STARTCHAR U+E165
ENCODING 57701
SWIDTH 768 0
DWIDTH 8 0
BBX 8 10 0 -2
BITMAP
00
0C
18
30
3C
36
36
1C
00
00
ENDCHAR
STARTCHAR U+E166
ENCODING 57702
SWIDTH 768 0
DWIDTH 8 0
BBX 8 10 0 -2
BITMAP
00
3E
06
0C
0C
18
18
18
00
00
ENDCHAR
STARTCHAR U+E167
ENCODING 57703
SWIDTH 768 0
DWIDTH 8 0
BBX 8 10 0 -2
BITMAP
00
1C
36
36
1C
36
36
1C
00
00
ENDCHAR
STARTCHAR U+E168
ENCODING 57704
SWIDTH 768 0
DWIDTH 8 0
BBX 8 10 0 -2
BITMAP
00
1C
36
36
1E
06
0C
18
00
00
ENDCHAR
STARTCHAR U+E169
ENCODING 57705
SWIDTH 768 0
DWIDTH 8 0
BBX 8 10 0 -2
BITMAP
3C
66
66
6E
76
66
66
3C
00
00
ENDCHAR
STARTCHAR U+E16A
ENCODING 57706
SWIDTH 768 0
DWIDTH 8 0
BBX 8 10 0 -2
BITMAP
18
38
18
18
18
18
18
3C
00
00
ENDCHAR
STARTCHAR U+E16B
ENCODING 57707
SWIDTH 768 0
DWIDTH 8 0
BBX 8 10 0 -2
BITMAP
3C
66
06
0C
18
30
60
7E
00
00
ENDCHAR
STARTCHAR U+E16C
ENCODING 57708
SWIDTH 768 0
DWIDTH 8 0
BBX 8 10 0 -2
BITMAP
3C
66
06
1C
06
06
66
3C
00
00
ENDCHAR
STARTCHAR U+E16D
ENCODING 57709
SWIDTH 768 0
DWIDTH 8 0
BBX 8 10 0 -2
BITMAP
0C
1C
2C
4C
7E
0C
0C
0C
00
00
ENDCHAR
STARTCHAR U+E16E
ENCODING 57710
SWIDTH 768 0
DWIDTH 8 0
BBX 8 10 0 -2
BITMAP
7E
60
60
7C
06
06
66
3C
00
00
ENDCHAR
STARTCHAR U+E16F
ENCODING 57711
SWIDTH 768 0
DWIDTH 8 0
BBX 8 10 0 -2
BITMAP
1C
30
60
7C
66
66
66
3C
00
00
ENDCHAR
STARTCHAR U+E170
ENCODING 57712
SWIDTH 768 0
DWIDTH 8 0
BBX 8 10 0 -2
BITMAP
7E
06
06
0C
0C
18
18
18
00
00
ENDCHAR
STARTCHAR U+E171
ENCODING 57713
SWIDTH 768 0
DWIDTH 8 0
BBX 8 10 0 -2
BITMAP
3C
66
66
3C
66
66
66
3C
00
00
ENDCHAR
STARTCHAR U+E172
ENCODING 57714
SWIDTH 768 0
DWIDTH 8 0
BBX 8 10 0 -2
BITMAP
3C
66
66
66
3E
06
0C
38
00
00
ENDCHAR
STARTCHAR U+E173
ENCODING 57715
SWIDTH 768 0
DWIDTH 8 0
BBX 8 10 0 -2
BITMAP
00
7E
66
6E
7E
76
66
7E
00
00
ENDCHAR
STARTCHAR U+E174
ENCODING 57716
SWIDTH 768 0
DWIDTH 8 0
BBX 8 10 0 -2
BITMAP
00
0C
1C
0C
0C
0C
0C
0C
00
00
ENDCHAR
STARTCHAR U+E175
ENCODING 57717
SWIDTH 768 0
DWIDTH 8 0
BBX 8 10 0 -2
BITMAP
00
7E
06
06
7E
60
60
7E
00
00
ENDCHAR
STARTCHAR U+E176
ENCODING 57718
SWIDTH 768 0
DWIDTH 8 0
BBX 8 10 0 -2
BITMAP
00
7E
06
06
7E
06
06
7E
00
00
ENDCHAR
STARTCHAR U+E177
ENCODING 57719
SWIDTH 768 0
DWIDTH 8 0
BBX 8 10 0 -2
BITMAP
00
66
66
66
7E
06
06
06
00
00
ENDCHAR
STARTCHAR U+E178
ENCODING 57720
SWIDTH 768 0
DWIDTH 8 0
BBX 8 10 0 -2
BITMAP
00
7E
60
60
7E
06
06
7E
00
00
ENDCHAR
STARTCHAR U+E179
ENCODING 57721
SWIDTH 768 0
DWIDTH 8 0
BBX 8 10 0 -2
BITMAP
00
7E
60
60
7E
66
66
7E
00
00
ENDCHAR
STARTCHAR U+E17A
ENCODING 57722
SWIDTH 768 0
DWIDTH 8 0
BBX 8 10 0 -2
BITMAP
00
7E
06
06
06
06
06
06
00
00
ENDCHAR
STARTCHAR U+E17B
ENCODING 57723
SWIDTH 768 0
DWIDTH 8 0
BBX 8 10 0 -2
BITMAP
00
7E
66
66
3C
66
66
7E
00
00
ENDCHAR
STARTCHAR U+E17C
ENCODING 57724
SWIDTH 768 0
DWIDTH 8 0
BBX 8 10 0 -2
BITMAP
00
7E
66
66
7E
06
06
06
00
00
ENDCHAR
STARTCHAR U+E17D
ENCODING 57725
SWIDTH 768 0
DWIDTH 8 0
BBX 8 10 0 -2
BITMAP
7E
66
6E
6E
76
76
66
7E
00
00
ENDCHAR
STARTCHAR U+E17E
ENCODING 57726
SWIDTH 768 0
DWIDTH 8 0
BBX 8 10 0 -2
BITMAP
0C
1C
3C
0C
0C
0C
0C
0C
00
00
ENDCHAR
STARTCHAR U+E17F
ENCODING 57727
SWIDTH 768 0
DWIDTH 8 0
BBX 8 10 0 -2
BITMAP
7E
06
06
7E
60
60
60
7E
00
00
ENDCHAR
STARTCHAR U+E180
ENCODING 57728
SWIDTH 768 0
DWIDTH 8 0
BBX 8 10 0 -2
BITMAP
7E
06
06
7E
06
06
06
7E
00
00
ENDCHAR
STARTCHAR U+E181
ENCODING 57729
SWIDTH 768 0
DWIDTH 8 0
BBX 8 10 0 -2
BITMAP
66
66
66
7E
06
06
06
06
00
00
ENDCHAR
STARTCHAR U+E182
ENCODING 57730
SWIDTH 768 0
DWIDTH 8 0
BBX 8 10 0 -2
BITMAP
7E
60
60
7E
06
06
06
7E
00
00
ENDCHAR
STARTCHAR U+E183
ENCODING 57731
SWIDTH 768 0
DWIDTH 8 0
BBX 8 10 0 -2
BITMAP
7E
60
60
7E
66
66
66
7E
00
00
ENDCHAR
STARTCHAR U+E184
ENCODING 57732
SWIDTH 768 0
DWIDTH 8 0
BBX 8 10 0 -2
BITMAP
7E
06
06
06
06
06
06
06
00
00
ENDCHAR
STARTCHAR U+E185
ENCODING 57733
SWIDTH 768 0
DWIDTH 8 0
BBX 8 10 0 -2
BITMAP
7E
66
66
3C
66
66
66
7E
00
00
ENDCHAR
STARTCHAR U+E186
ENCODING 57734
SWIDTH 768 0
DWIDTH 8 0
BBX 8 10 0 -2
BITMAP
7E
66
66
7E
06
06
06
06
00
00
ENDCHAR
STARTCHAR U+E187
ENCODING 57735
SWIDTH 768 0
DWIDTH 8 0
BBX 8 10 0 -2
BITMAP
7F
77
67
77
77
77
63
7F
00
00
ENDCHAR
STARTCHAR U+E188
ENCODING 57736
SWIDTH 768 0
DWIDTH 8 0
BBX 8 10 0 -2
BITMAP
7F
63
5D
7B
77
6F
41
7F
00
00
ENDCHAR
STARTCHAR U+E189
ENCODING 57737
SWIDTH 768 0
DWIDTH 8 0
BBX 8 10 0 -2
BITMAP
7F
63
5D
73
7D
5D
63
7F
00
00
ENDCHAR
STARTCHAR U+E18A
ENCODING 57738
SWIDTH 768 0
DWIDTH 8 0
BBX 8 10 0 -2
BITMAP
7F
7B
73
6B
41
7B
7B
7F
00
00
ENDCHAR
STARTCHAR U+E18B
ENCODING 57739
SWIDTH 768 0
DWIDTH 8 0
BBX 8 10 0 -2
BITMAP
7F
41
5F
43
7D
5D
63
7F
00
00
ENDCHAR
STARTCHAR U+E18C
ENCODING 57740
SWIDTH 768 0
DWIDTH 8 0
BBX 8 10 0 -2
BITMAP
7F
63
5F
43
5D
5D
63
7F
00
00
ENDCHAR
STARTCHAR U+E18D
ENCODING 57741
SWIDTH 768 0
DWIDTH 8 0
BBX 8 10 0 -2
BITMAP
7F
41
7D
7B
7B
77
77
7F
00
00
ENDCHAR
STARTCHAR U+E18E
ENCODING 57742
SWIDTH 768 0
DWIDTH 8 0
BBX 8 10 0 -2
BITMAP
7F
63
5D
63
5D
5D
63
7F
00
00
ENDCHAR
STARTCHAR U+E18F
ENCODING 57743
SWIDTH 768 0
DWIDTH 8 0
BBX 8 10 0 -2
BITMAP
7F
63
5D
5D
61
7D
63
7F
00
00
ENDCHAR
STARTCHAR U+E190
ENCODING 57744
SWIDTH 768 0
DWIDTH 8 0
BBX 8 10 0 -2
BITMAP
00
00
00
18
3C
3C
18
00
00
00
ENDCHAR
STARTCHAR U+E191
ENCODING 57745
SWIDTH 768 0
DWIDTH 8 0
BBX 8 10 0 -2
BITMAP
00
00
18
3C
3C
18
00
00
00
00
ENDCHAR
STARTCHAR U+E192
ENCODING 57746
SWIDTH 768 0
DWIDTH 8 0
BBX 8 10 0 -2
BITMAP
00
00
18
18
00
18
18
00
00
00
ENDCHAR
STARTCHAR U+E193
ENCODING 57747
SWIDTH 768 0
DWIDTH 8 0
BBX 8 10 0 -2
BITMAP
00
18
18
00
00
18
18
00
00
00
ENDCHAR
STARTCHAR U+E194
ENCODING 57748
SWIDTH 768 0
DWIDTH 8 0
BBX 8 10 0 -2
BITMAP
00
00
66
66
00
66
66
00
00
00
ENDCHAR
STARTCHAR U+E195
ENCODING 57749
SWIDTH 768 0
DWIDTH 8 0
BBX 8 10 0 -2
BITMAP
00
66
66
00
00
66
66
00
00
00
ENDCHAR
STARTCHAR U+E196
ENCODING 57750
SWIDTH 768 0
DWIDTH 8 0
BBX 8 10 0 -2
BITMAP
66
66
00
66
66
00
66
66
00
00
ENDCHAR
STARTCHAR char57751
ENCODING 57751
SWIDTH 768 0
DWIDTH 8 0
BBX 8 10 0 -2
BITMAP
05
05
57
72
72
22
7E
72
00
00
ENDCHAR
STARTCHAR char57752
ENCODING 57752
SWIDTH 768 0
DWIDTH 8 0
BBX 8 10 0 -2
BITMAP
02
8D
75
77
72
22
7E
72
00
00
ENDCHAR
STARTCHAR char57753
ENCODING 57753
SWIDTH 768 0
DWIDTH 8 0
BBX 8 10 0 -2
BITMAP
05
8D
77
72
72
22
7E
72
00
00
ENDCHAR
STARTCHAR char57754
ENCODING 57754
SWIDTH 768 0
DWIDTH 8 0
BBX 8 10 0 -2
BITMAP
81
81
FF
5A
DB
FF
42
7E
00
00
ENDCHAR
STARTCHAR char57755
ENCODING 57755
SWIDTH 768 0
DWIDTH 8 0
BBX 8 10 0 -2
BITMAP
7E
FF
FF
FF
FE
C0
C0
60
00
00
ENDCHAR
STARTCHAR char57756
ENCODING 57756
SWIDTH 768 0
DWIDTH 8 0
BBX 8 10 0 -2
BITMAP
F8
88
9F
F1
31
3F
24
FF
00
00
ENDCHAR
STARTCHAR char57757
ENCODING 57757
SWIDTH 768 0
DWIDTH 8 0
BBX 8 10 0 -2
BITMAP
42
24
7E
5A
FF
A5
BD
24
00
00
ENDCHAR
STARTCHAR char57758
ENCODING 57758
SWIDTH 768 0
DWIDTH 8 0
BBX 8 10 0 -2
BITMAP
FF
FF
18
18
FF
DB
C3
FF
00
00
ENDCHAR
STARTCHAR char57759
ENCODING 57759
SWIDTH 768 0
DWIDTH 8 0
BBX 8 10 0 -2
BITMAP
7E
FF
FF
FF
7F
06
04
08
00
00
ENDCHAR
STARTCHAR U+E1A0
ENCODING 57760
SWIDTH 768 0
DWIDTH 8 0
BBX 8 10 0 -2
BITMAP
00
7E
7E
3C
18
18
3C
7E
7E
00
ENDCHAR
ENDFONT
